<svg width="180" height="61" viewBox="0 0 180 61" fill="none" xmlns="http://www.w3.org/2000/svg">
<g clip-path="url(#clip0)">
<rect width="180" height="60" transform="translate(0 0.5)" fill="white"/>
<path d="M39.1891 16.8516H62.1286L60.0368 25.9395H53.9196L54.8864 21.6855H48.0309L46.6071 27.8027H52.988L51.7927 32.918H45.4118L44.0759 38.6836H47.152L46.027 43.5H34.1442L35.2692 38.6836H37.9235L41.861 21.6855H38.0817L39.1891 16.8516Z" fill="#3F49A7"/>
<path d="M87.1666 17.1758H91.4909V18.6963H90.3307L86.525 30.5H83.8356L80.2233 18.8896L76.8922 30.5H74.2291L70.3444 18.6963H69.1666V17.1758H73.4909V18.6963H72.3307L75.5563 28.9355L78.9577 17.1758H81.5856L85.2067 28.9355L88.4938 18.6963H87.1666V17.1758ZM92.3346 25.9473C92.3405 25.2266 92.4547 24.5703 92.6774 23.9785C92.9059 23.3867 93.2223 22.8799 93.6266 22.458C94.0309 22.0303 94.5114 21.7021 95.068 21.4736C95.6247 21.2451 96.237 21.1309 96.9049 21.1309C97.5788 21.1309 98.194 21.2451 98.7506 21.4736C99.3131 21.7021 99.7936 22.0273 100.192 22.4492C100.59 22.8652 100.901 23.3691 101.124 23.9609C101.346 24.5527 101.458 25.209 101.458 25.9297C101.458 26.6387 101.346 27.292 101.124 27.8896C100.901 28.4814 100.59 28.9912 100.192 29.4189C99.7936 29.8467 99.3131 30.1807 98.7506 30.4209C98.194 30.6553 97.5788 30.7725 96.9049 30.7725C96.2194 30.7725 95.5983 30.6553 95.0416 30.4209C94.485 30.1865 94.0075 29.8584 93.609 29.4365C93.2106 29.0088 92.9 28.499 92.6774 27.9072C92.4547 27.3154 92.3405 26.6621 92.3346 25.9473ZM94.0661 25.9473C94.0661 26.4688 94.1393 26.9404 94.2858 27.3623C94.4381 27.7842 94.6432 28.1445 94.901 28.4434C95.1647 28.7363 95.4664 28.9648 95.8063 29.1289C96.152 29.2871 96.5182 29.3662 96.9049 29.3662C97.3092 29.3662 97.6842 29.2871 98.0299 29.1289C98.3815 28.9707 98.6862 28.7451 98.944 28.4521C99.2018 28.1533 99.4039 27.793 99.5504 27.3711C99.6969 26.9492 99.7702 26.4746 99.7702 25.9473C99.7702 25.3965 99.6969 24.9072 99.5504 24.4795C99.4039 24.0518 99.2018 23.6943 98.944 23.4072C98.692 23.1201 98.3903 22.9033 98.0387 22.7568C97.6872 22.6104 97.3092 22.5371 96.9049 22.5371C96.5182 22.5371 96.152 22.6104 95.8063 22.7568C95.4664 22.9033 95.1647 23.1201 94.901 23.4072C94.6432 23.6943 94.4381 24.0518 94.2858 24.4795C94.1393 24.9072 94.0661 25.3965 94.0661 25.9473ZM109.781 23.3193H108.111V22.7568C107.918 22.7568 107.718 22.7949 107.513 22.8711C107.314 22.9414 107.127 23.0527 106.951 23.2051C106.775 23.3516 106.62 23.542 106.485 23.7764C106.356 24.0049 106.262 24.2773 106.204 24.5938V28.9883H107.751V30.5H103.233V28.9883H104.49L104.499 22.9062H103.233V21.3945H106.142V22.6514C106.248 22.4639 106.365 22.291 106.494 22.1328C106.629 21.9688 106.775 21.8281 106.933 21.7109C107.097 21.5879 107.276 21.4941 107.469 21.4297C107.669 21.3594 107.882 21.3242 108.111 21.3242C108.416 21.3242 108.703 21.3242 108.972 21.3242C109.242 21.3242 109.511 21.3301 109.781 21.3418V23.3193ZM111.6 16.8242H114.808V18.3359H114.791V25.1387H116.373L118.535 22.9062H117.99V21.3945H121.444V22.9062H120.293L117.524 25.7627L120.548 28.9883H121.646V30.5H119.721L115.995 26.4307H114.791V28.9883H115.547V30.5H111.653V28.9883H113.147V18.3359H111.6V16.8242ZM123.351 17.1758H132.896V20.9463H131.094V18.6963H126.339V22.9766H130.919V24.4531H126.339V28.9883H127.675V30.5H123.351V28.9883H124.617V18.6963H123.351V17.1758ZM133.837 16.8242H136.79V28.9883H138.161V30.5H133.837V28.9883H135.155V18.3359H133.837V16.8242ZM139.637 25.9473C139.643 25.2266 139.757 24.5703 139.98 23.9785C140.209 23.3867 140.525 22.8799 140.929 22.458C141.334 22.0303 141.814 21.7021 142.371 21.4736C142.927 21.2451 143.54 21.1309 144.208 21.1309C144.881 21.1309 145.497 21.2451 146.053 21.4736C146.616 21.7021 147.096 22.0273 147.495 22.4492C147.893 22.8652 148.204 23.3691 148.426 23.9609C148.649 24.5527 148.76 25.209 148.76 25.9297C148.76 26.6387 148.649 27.292 148.426 27.8896C148.204 28.4814 147.893 28.9912 147.495 29.4189C147.096 29.8467 146.616 30.1807 146.053 30.4209C145.497 30.6553 144.881 30.7725 144.208 30.7725C143.522 30.7725 142.901 30.6553 142.344 30.4209C141.788 30.1865 141.31 29.8584 140.912 29.4365C140.513 29.0088 140.203 28.499 139.98 27.9072C139.757 27.3154 139.643 26.6621 139.637 25.9473ZM141.369 25.9473C141.369 26.4688 141.442 26.9404 141.589 27.3623C141.741 27.7842 141.946 28.1445 142.204 28.4434C142.467 28.7363 142.769 28.9648 143.109 29.1289C143.455 29.2871 143.821 29.3662 144.208 29.3662C144.612 29.3662 144.987 29.2871 145.333 29.1289C145.684 28.9707 145.989 28.7451 146.247 28.4521C146.505 28.1533 146.707 27.793 146.853 27.3711C147 26.9492 147.073 26.4746 147.073 25.9473C147.073 25.3965 147 24.9072 146.853 24.4795C146.707 24.0518 146.505 23.6943 146.247 23.4072C145.995 23.1201 145.693 22.9033 145.341 22.7568C144.99 22.6104 144.612 22.5371 144.208 22.5371C143.821 22.5371 143.455 22.6104 143.109 22.7568C142.769 22.9033 142.467 23.1201 142.204 23.4072C141.946 23.6943 141.741 24.0518 141.589 24.4795C141.442 24.9072 141.369 25.3965 141.369 25.9473ZM149.833 21.3945H152.715V22.9062H152.294L153.884 28.7158L156.064 21.3945H157.435L159.518 28.6982L161.179 22.9062H160.652V21.3945H163.535V22.9062H162.753L160.256 30.6406H158.745L156.679 23.3721L154.623 30.6406H153.093L150.615 22.9062H149.833V21.3945Z" fill="black"/>
<path d="M33.6621 3.85156H44.4199L43.3125 8.68555H41.2207L29.8125 30.5H22.6055L22.4648 13.3613L14.0801 30.5H6.87304L5.66014 8.68555H2.77733L3.88475 3.85156H14.6601L13.5351 8.68555H11.3379L12.0234 23.2578L21.3398 3.85156H27.6855L27.9668 23.1875L35.2969 8.68555H32.5371L33.6621 3.85156Z" fill="#6F39A1"/>
</g>
<defs>
<clipPath id="clip0">
<rect width="180" height="60" fill="white" transform="translate(0 0.5)"/>
</clipPath>
</defs>
</svg>
