<svg width="180" height="60" viewBox="0 0 180 60" fill="none" xmlns="http://www.w3.org/2000/svg">
<g clip-path="url(#clip0)">
<rect width="180" height="60" fill="white"/>
<path d="M39.1891 16.3516H62.1286L60.0368 25.4395H53.9196L54.8864 21.1855H48.0309L46.6071 27.3027H52.988L51.7927 32.418H45.4118L44.0759 38.1836H47.152L46.027 43H34.1442L35.2692 38.1836H37.9235L41.861 21.1855H38.0817L39.1891 16.3516Z" fill="#3F49A7"/>
<path d="M87.1666 16.6758H91.4909V18.1963H90.3307L86.525 30H83.8356L80.2233 18.3896L76.8922 30H74.2291L70.3444 18.1963H69.1666V16.6758H73.4909V18.1963H72.3307L75.5563 28.4355L78.9577 16.6758H81.5856L85.2067 28.4355L88.4938 18.1963H87.1666V16.6758ZM92.3346 25.4473C92.3405 24.7266 92.4547 24.0703 92.6774 23.4785C92.9059 22.8867 93.2223 22.3799 93.6266 21.958C94.0309 21.5303 94.5114 21.2021 95.068 20.9736C95.6247 20.7451 96.237 20.6309 96.9049 20.6309C97.5788 20.6309 98.194 20.7451 98.7506 20.9736C99.3131 21.2021 99.7936 21.5273 100.192 21.9492C100.59 22.3652 100.901 22.8691 101.124 23.4609C101.346 24.0527 101.458 24.709 101.458 25.4297C101.458 26.1387 101.346 26.792 101.124 27.3896C100.901 27.9814 100.59 28.4912 100.192 28.9189C99.7936 29.3467 99.3131 29.6807 98.7506 29.9209C98.194 30.1553 97.5788 30.2725 96.9049 30.2725C96.2194 30.2725 95.5983 30.1553 95.0416 29.9209C94.485 29.6865 94.0075 29.3584 93.609 28.9365C93.2106 28.5088 92.9 27.999 92.6774 27.4072C92.4547 26.8154 92.3405 26.1621 92.3346 25.4473ZM94.0661 25.4473C94.0661 25.9688 94.1393 26.4404 94.2858 26.8623C94.4381 27.2842 94.6432 27.6445 94.901 27.9434C95.1647 28.2363 95.4664 28.4648 95.8063 28.6289C96.152 28.7871 96.5182 28.8662 96.9049 28.8662C97.3092 28.8662 97.6842 28.7871 98.0299 28.6289C98.3815 28.4707 98.6862 28.2451 98.944 27.9521C99.2018 27.6533 99.4039 27.293 99.5504 26.8711C99.6969 26.4492 99.7702 25.9746 99.7702 25.4473C99.7702 24.8965 99.6969 24.4072 99.5504 23.9795C99.4039 23.5518 99.2018 23.1943 98.944 22.9072C98.692 22.6201 98.3903 22.4033 98.0387 22.2568C97.6872 22.1104 97.3092 22.0371 96.9049 22.0371C96.5182 22.0371 96.152 22.1104 95.8063 22.2568C95.4664 22.4033 95.1647 22.6201 94.901 22.9072C94.6432 23.1943 94.4381 23.5518 94.2858 23.9795C94.1393 24.4072 94.0661 24.8965 94.0661 25.4473ZM109.781 22.8193H108.111V22.2568C107.918 22.2568 107.718 22.2949 107.513 22.3711C107.314 22.4414 107.127 22.5527 106.951 22.7051C106.775 22.8516 106.62 23.042 106.485 23.2764C106.356 23.5049 106.262 23.7773 106.204 24.0938V28.4883H107.751V30H103.233V28.4883H104.49L104.499 22.4062H103.233V20.8945H106.142V22.1514C106.248 21.9639 106.365 21.791 106.494 21.6328C106.629 21.4688 106.775 21.3281 106.933 21.2109C107.097 21.0879 107.276 20.9941 107.469 20.9297C107.669 20.8594 107.882 20.8242 108.111 20.8242C108.416 20.8242 108.703 20.8242 108.972 20.8242C109.242 20.8242 109.511 20.8301 109.781 20.8418V22.8193ZM111.6 16.3242H114.808V17.8359H114.791V24.6387H116.373L118.535 22.4062H117.99V20.8945H121.444V22.4062H120.293L117.524 25.2627L120.548 28.4883H121.646V30H119.721L115.995 25.9307H114.791V28.4883H115.547V30H111.653V28.4883H113.147V17.8359H111.6V16.3242ZM123.351 16.6758H132.896V20.4463H131.094V18.1963H126.339V22.4766H130.919V23.9531H126.339V28.4883H127.675V30H123.351V28.4883H124.617V18.1963H123.351V16.6758ZM133.837 16.3242H136.79V28.4883H138.161V30H133.837V28.4883H135.155V17.8359H133.837V16.3242ZM139.637 25.4473C139.643 24.7266 139.757 24.0703 139.98 23.4785C140.209 22.8867 140.525 22.3799 140.929 21.958C141.334 21.5303 141.814 21.2021 142.371 20.9736C142.927 20.7451 143.54 20.6309 144.208 20.6309C144.881 20.6309 145.497 20.7451 146.053 20.9736C146.616 21.2021 147.096 21.5273 147.495 21.9492C147.893 22.3652 148.204 22.8691 148.426 23.4609C148.649 24.0527 148.76 24.709 148.76 25.4297C148.76 26.1387 148.649 26.792 148.426 27.3896C148.204 27.9814 147.893 28.4912 147.495 28.9189C147.096 29.3467 146.616 29.6807 146.053 29.9209C145.497 30.1553 144.881 30.2725 144.208 30.2725C143.522 30.2725 142.901 30.1553 142.344 29.9209C141.788 29.6865 141.31 29.3584 140.912 28.9365C140.513 28.5088 140.203 27.999 139.98 27.4072C139.757 26.8154 139.643 26.1621 139.637 25.4473ZM141.369 25.4473C141.369 25.9688 141.442 26.4404 141.589 26.8623C141.741 27.2842 141.946 27.6445 142.204 27.9434C142.467 28.2363 142.769 28.4648 143.109 28.6289C143.455 28.7871 143.821 28.8662 144.208 28.8662C144.612 28.8662 144.987 28.7871 145.333 28.6289C145.684 28.4707 145.989 28.2451 146.247 27.9521C146.505 27.6533 146.707 27.293 146.853 26.8711C147 26.4492 147.073 25.9746 147.073 25.4473C147.073 24.8965 147 24.4072 146.853 23.9795C146.707 23.5518 146.505 23.1943 146.247 22.9072C145.995 22.6201 145.693 22.4033 145.341 22.2568C144.99 22.1104 144.612 22.0371 144.208 22.0371C143.821 22.0371 143.455 22.1104 143.109 22.2568C142.769 22.4033 142.467 22.6201 142.204 22.9072C141.946 23.1943 141.741 23.5518 141.589 23.9795C141.442 24.4072 141.369 24.8965 141.369 25.4473ZM149.833 20.8945H152.715V22.4062H152.294L153.884 28.2158L156.064 20.8945H157.435L159.518 28.1982L161.179 22.4062H160.652V20.8945H163.535V22.4062H162.753L160.256 30.1406H158.745L156.679 22.8721L154.623 30.1406H153.093L150.615 22.4062H149.833V20.8945Z" fill="white"/>
<path d="M33.6621 3.35156H44.4199L43.3125 8.18555H41.2207L29.8125 30H22.6055L22.4648 12.8613L14.0801 30H6.87304L5.66014 8.18555H2.77733L3.88475 3.35156H14.6601L13.5351 8.18555H11.3379L12.0234 22.7578L21.3398 3.35156H27.6855L27.9668 22.6875L35.2969 8.18555H32.5371L33.6621 3.35156Z" fill="#6F39A1"/>
</g>
<defs>
<clipPath id="clip0">
<rect width="180" height="60" fill="white"/>
</clipPath>
</defs>
</svg>
