<svg width="100" height="100" viewBox="0 0 100 100" fill="none" xmlns="http://www.w3.org/2000/svg">
<rect width="100" height="100" fill="white"/>
<path d="M56.1172 38.6418H79.0566L76.9648 47.7297H70.8477L71.8145 43.4758H64.959L63.5352 49.593H69.916L68.7207 54.7082H62.3398L61.0039 60.4738H64.0801L62.9551 65.2902H51.0723L52.1973 60.4738H54.8516L58.7891 43.4758H55.0098L56.1172 38.6418Z" fill="#3F49A7"/>
<path d="M50.2851 23.3516H61.0429L59.9354 28.1855H57.8436L46.4354 50H39.2284L39.0878 32.8613L30.703 50H23.496L22.2831 28.1855H19.4003L20.5077 23.3516H31.2831L30.1581 28.1855H27.9608L28.6464 42.7578L37.9628 23.3516H44.3085L44.5897 42.6875L51.9198 28.1855H49.1601L50.2851 23.3516Z" fill="#6F39A1"/>
</svg>
