<svg width="100" height="100" viewBox="0 0 100 100" fill="none" xmlns="http://www.w3.org/2000/svg">
<rect width="100" height="100" fill="white"/>
<path d="M56.1172 38.6418H79.0566L76.9648 47.7297H70.8477L71.8145 43.4758H64.959L63.5352 49.593H69.916L68.7207 54.7082H62.3398L61.0039 60.4738H64.0801L62.9551 65.2902H51.0723L52.1973 60.4738H54.8516L58.7891 43.4758H55.0098L56.1172 38.6418Z" fill="#3F49A7"/>
<path d="M50.2851 23.3516H61.0429L59.9354 28.1855H57.8436L46.4354 50H39.2284L39.0878 32.8613L30.703 50H23.496L22.2831 28.1855H19.4003L20.5077 23.3516H31.2831L30.1581 28.1855H27.9608L28.6464 42.7578L37.9628 23.3516H44.3085L44.5897 42.6875L51.9198 28.1855H49.1601L50.2851 23.3516Z" fill="#6F39A1"/>
<path d="M59.2753 34.2143C59.2753 33.6557 59.3749 33.1498 59.5741 32.6967C59.7772 32.2397 60.0487 31.851 60.3885 31.5307C60.7284 31.2065 61.121 30.9565 61.5663 30.7807C62.0155 30.6049 62.4882 30.517 62.9843 30.517C63.3671 30.517 63.7245 30.5873 64.0565 30.7279C64.3925 30.8686 64.6835 31.0619 64.9296 31.308C65.1757 31.5502 65.369 31.8373 65.5096 32.1693C65.6503 32.4975 65.7206 32.851 65.7206 33.2299C65.7206 33.765 65.6249 34.2572 65.4335 34.7065C65.246 35.1557 64.9862 35.5443 64.6542 35.8725C64.326 36.2006 63.9354 36.4565 63.4823 36.64C63.0331 36.8236 62.5468 36.9154 62.0233 36.9154C61.6288 36.9154 61.2635 36.8451 60.9276 36.7045C60.5956 36.56 60.3065 36.3666 60.0604 36.1244C59.8143 35.8783 59.621 35.5912 59.4803 35.2631C59.3436 34.935 59.2753 34.5854 59.2753 34.2143ZM61.1854 33.9975C61.1854 34.1693 61.2108 34.3275 61.2616 34.4721C61.3124 34.6127 61.3827 34.7357 61.4725 34.8412C61.5663 34.9428 61.6757 35.0229 61.8007 35.0815C61.9296 35.1361 62.0682 35.1635 62.2167 35.1635C62.4198 35.1635 62.6171 35.1205 62.8085 35.0346C62.9999 34.9447 63.1698 34.8236 63.3182 34.6713C63.4706 34.515 63.5917 34.3334 63.6815 34.1264C63.7714 33.9154 63.8163 33.6889 63.8163 33.4467C63.8163 33.2475 63.787 33.0756 63.7284 32.9311C63.6737 32.7826 63.5995 32.6596 63.5057 32.5619C63.412 32.4643 63.3026 32.392 63.1776 32.3451C63.0526 32.2943 62.9198 32.269 62.7792 32.269C62.5565 32.269 62.3475 32.3158 62.1522 32.4096C61.9608 32.4994 61.7928 32.6225 61.6483 32.7787C61.5077 32.935 61.3944 33.1186 61.3085 33.3295C61.2264 33.5365 61.1854 33.7592 61.1854 33.9975ZM72.3593 33.06H70.4491L70.5956 32.4506C70.4628 32.4506 70.3397 32.4643 70.2264 32.4916C70.1171 32.519 70.0096 32.56 69.9042 32.6147C69.8026 32.6693 69.703 32.7377 69.6053 32.8197C69.5389 32.8744 69.4725 32.935 69.4061 33.0014L68.9022 35.1635H70.1737L69.8046 36.769H66.5292L67.5604 32.3041H66.4413L66.8163 30.6986H69.9218L69.8046 31.226C69.9647 31.0815 70.1561 30.9604 70.3788 30.8627C70.6249 30.7533 70.9139 30.6986 71.246 30.6986H72.91L72.3593 33.06ZM73.8534 27.6518H77.0116L75.828 32.7729H76.496L77.4276 31.7826L77.6796 30.6986H80.3573L79.9882 32.3041H79.1678L77.7909 33.6107L78.5819 35.1635H79.496L79.121 36.769H77.3573L76.2089 34.39H75.453L74.9081 36.769H72.9159L74.6503 29.2572H73.4843L73.8534 27.6518Z" fill="#5704AB"/>
<path d="M71.0604 55.173H74.2186L72.4843 62.6848H73.5917L73.2225 64.2902H70.1229L71.8573 56.7785H70.6913L71.0604 55.173ZM74.4003 61.7355C74.4003 61.1769 74.4999 60.6711 74.6991 60.218C74.9022 59.7609 75.1737 59.3723 75.5135 59.0519C75.8534 58.7277 76.246 58.4777 76.6913 58.3019C77.1405 58.1262 77.6132 58.0383 78.1093 58.0383C78.4921 58.0383 78.8495 58.1086 79.1815 58.2492C79.5175 58.3898 79.8085 58.5832 80.0546 58.8293C80.3007 59.0715 80.494 59.3586 80.6346 59.6906C80.7753 60.0187 80.8456 60.3723 80.8456 60.7512C80.8456 61.2863 80.7499 61.7785 80.5585 62.2277C80.371 62.6769 80.1112 63.0656 79.7792 63.3937C79.451 63.7219 79.0604 63.9777 78.6073 64.1613C78.1581 64.3449 77.6718 64.4367 77.1483 64.4367C76.7538 64.4367 76.3885 64.3664 76.0526 64.2258C75.7206 64.0812 75.4315 63.8879 75.1854 63.6457C74.9393 63.3996 74.746 63.1125 74.6053 62.7844C74.4686 62.4562 74.4003 62.1066 74.4003 61.7355ZM76.3104 61.5187C76.3104 61.6906 76.3358 61.8488 76.3866 61.9933C76.4374 62.134 76.5077 62.257 76.5975 62.3625C76.6913 62.4641 76.8007 62.5441 76.9257 62.6027C77.0546 62.6574 77.1932 62.6848 77.3417 62.6848C77.5448 62.6848 77.7421 62.6418 77.9335 62.5558C78.1249 62.466 78.2948 62.3449 78.4432 62.1926C78.5956 62.0363 78.7167 61.8547 78.8065 61.6476C78.8964 61.4367 78.9413 61.2101 78.9413 60.968C78.9413 60.7687 78.912 60.5969 78.8534 60.4523C78.7987 60.3039 78.7245 60.1808 78.6307 60.0832C78.537 59.9855 78.4276 59.9133 78.3026 59.8664C78.1776 59.8156 78.0448 59.7902 77.9042 59.7902C77.6815 59.7902 77.4725 59.8371 77.2772 59.9308C77.0858 60.0207 76.9178 60.1437 76.7733 60.3C76.6327 60.4562 76.5194 60.6398 76.4335 60.8508C76.3514 61.0578 76.3104 61.2805 76.3104 61.5187ZM81.2792 58.2199H84.2792L83.91 59.8254H83.5175L83.6581 61.6769L85.6503 58.2199H87.6073L87.9647 61.9113L89.1659 59.8254H88.6268L88.996 58.2199H91.996L91.6268 59.8254H91.0643L88.3749 64.2902H86.4061L86.0194 60.6926H85.996L83.8866 64.2902H81.9882L81.5077 59.8254H80.91L81.2792 58.2199Z" fill="#041CFF"/>
</svg>
